<svg width="46" height="46" viewBox="0 0 46 46" fill="none" xmlns="http://www.w3.org/2000/svg">
<path d="M44 23C44 34.598 34.598 44 23 44C11.402 44 2 34.598 2 23C2 11.402 11.402 2 23 2C34.598 2 44 11.402 44 23Z" stroke="#2D9CDB" stroke-width="4"/>
<path d="M44 23C44 34.598 34.598 44 23 44C11.402 44 2 34.598 2 23C2 11.402 11.402 2 23 2C34.598 2 44 11.402 44 23Z" fill="#2D9CDB" stroke="#2D9CDB" stroke-width="4"/>
<path d="M14.274 20.6478C15.33 20.6478 16.152 20.9118 16.74 21.4398C17.328 21.9678 17.622 22.8318 17.622 24.0318V30.0078H14.94V24.5898C14.94 23.4378 14.364 22.8618 13.212 22.8618C12.936 22.8618 12.654 22.9038 12.366 22.9878C12.078 23.0718 11.856 23.1738 11.7 23.2938L11.664 30.0078H9V17.2998H11.7V21.3138C12.528 20.8698 13.386 20.6478 14.274 20.6478Z" fill="white"/>
<path d="M19.8779 27.4698H22.4879V30.0078H19.8779V27.4698Z" fill="white"/>
<path d="M25.2231 30.0078V17H27.7808L31.3843 27.0635L35.0933 17H37.3784V30.0078H35.6558V19.4258L32.0698 29.1377H30.2856L26.8052 19.3994V30.0078H25.2231Z" fill="white"/>
</svg>
